<svg xmlns="http://www.w3.org/2000/svg" xmlns:xlink="http://www.w3.org/1999/xlink" width="40" height="40" viewBox="0 0 40 40" fill="none">
  <g transform="translate(-1536 -1042)"><g id="twilio_light">
<rect width="40" height="40" transform="translate(1536 1042)" fill="white"/>
<rect width="40" height="40" transform="translate(1536 1042)" fill="#F22F46"/>
<path id="Vector_475" d="M1552.75 1067.75C1554.13 1067.75 1555.25 1066.63 1555.25 1065.25C1555.25 1063.87 1554.13 1062.75 1552.75 1062.75C1551.37 1062.75 1550.25 1063.87 1550.25 1065.25C1550.25 1066.63 1551.37 1067.75 1552.75 1067.75ZM1552.75 1061.25C1554.13 1061.25 1555.25 1060.13 1555.25 1058.75C1555.25 1057.37 1554.13 1056.25 1552.75 1056.25C1551.37 1056.25 1550.25 1057.37 1550.25 1058.75C1550.25 1060.13 1551.37 1061.25 1552.75 1061.25ZM1559.25 1067.75C1560.63 1067.75 1561.75 1066.63 1561.75 1065.25C1561.75 1063.87 1560.63 1062.75 1559.25 1062.75C1557.87 1062.75 1556.75 1063.87 1556.75 1065.25C1556.75 1066.63 1557.87 1067.75 1559.25 1067.75ZM1559.25 1061.25C1560.63 1061.25 1561.75 1060.13 1561.75 1058.75C1561.75 1057.37 1560.63 1056.25 1559.25 1056.25C1557.87 1056.25 1556.75 1057.37 1556.75 1058.75C1556.75 1060.13 1557.87 1061.25 1559.25 1061.25ZM1556 1049C1563.04 1049 1569 1054.96 1569 1062C1569 1069.04 1563.04 1075 1556 1075C1548.96 1075 1543 1069.04 1543 1062C1543 1054.96 1548.96 1049 1556 1049ZM1556 1052.5C1550.77 1052.5 1546.5 1056.62 1546.5 1061.83C1546.5 1067.03 1550.77 1071.5 1556 1071.5C1561.23 1071.5 1565.5 1067.03 1565.5 1061.83C1565.5 1056.62 1561.23 1052.5 1556 1052.5Z" fill="white"/>
</g>
</g>
</svg>
