<svg xmlns="http://www.w3.org/2000/svg" xmlns:xlink="http://www.w3.org/1999/xlink" width="40" height="40" viewBox="0 0 40 40" fill="none">
  <g transform="translate(-1536 -1690)"><g id="todoist_light">
<rect width="40" height="40" transform="translate(1536 1690)" fill="white"/>
<rect width="40" height="40" transform="translate(1536 1690)" fill="#E44332"/>
<g id="Vector_471">
<path d="M1544.46 1708.88C1545.16 1708.47 1560.14 1699.76 1560.48 1699.56C1560.82 1699.36 1560.84 1698.75 1560.45 1698.53C1560.07 1698.31 1559.34 1697.89 1559.07 1697.73C1558.69 1697.52 1558.22 1697.52 1557.84 1697.74C1557.64 1697.85 1544.84 1705.29 1544.42 1705.53C1543.9 1705.83 1543.27 1705.83 1542.76 1705.53L1536 1701.57V1704.94C1537.64 1705.91 1541.74 1708.31 1542.73 1708.88C1543.32 1709.22 1543.89 1709.21 1544.46 1708.88" fill="white"/>
<path d="M1544.46 1715.25C1545.16 1714.84 1560.14 1706.14 1560.48 1705.94C1560.82 1705.74 1560.84 1705.12 1560.45 1704.9C1560.07 1704.68 1559.34 1704.26 1559.07 1704.1C1558.69 1703.89 1558.22 1703.9 1557.84 1704.12C1557.64 1704.23 1544.84 1711.67 1544.42 1711.91C1543.9 1712.2 1543.27 1712.21 1542.76 1711.91L1536 1707.94V1711.31C1537.64 1712.28 1541.74 1714.69 1542.73 1715.26C1543.32 1715.59 1543.89 1715.58 1544.46 1715.25" fill="white"/>
<path d="M1544.46 1722.03C1545.16 1721.62 1560.14 1712.91 1560.48 1712.71C1560.82 1712.51 1560.84 1711.9 1560.45 1711.68C1560.07 1711.46 1559.34 1711.04 1559.07 1710.88C1558.69 1710.67 1558.22 1710.67 1557.84 1710.89C1557.64 1711 1544.84 1718.44 1544.42 1718.68C1543.9 1718.98 1543.27 1718.98 1542.76 1718.68L1536 1714.72V1718.09C1537.64 1719.06 1541.74 1721.46 1542.73 1722.03C1543.32 1722.37 1543.89 1722.36 1544.46 1722.03" fill="white"/>
</g>
</g>
</g>
</svg>
