<svg xmlns="http://www.w3.org/2000/svg" width="40" height="40" viewBox="0 0 40 40" fill="none"><g id="deepseek_light">
<rect width="40" height="40" fill="white"/>
<rect width="40" height="40" fill="#4D6BFE"/>
<path id="path" d="M35.6861 10.8552C35.3678 10.6998 35.2308 10.9958 35.0446 11.1463C34.9817 11.1957 34.9274 11.2598 34.8744 11.3166C34.4093 11.8149 33.8665 12.1406 33.1584 12.1011C32.121 12.0444 31.2365 12.37 30.4545 13.1645C30.2879 12.185 29.7352 11.6003 28.8952 11.2253C28.4548 11.0304 28.0094 10.8355 27.7024 10.4111C27.4865 10.1101 27.4285 9.77459 27.3199 9.44399C27.252 9.24415 27.1829 9.03938 26.9536 9.00484C26.7043 8.96537 26.6069 9.17507 26.5094 9.35023C26.1172 10.0657 25.9666 10.8552 25.9803 11.6546C26.0148 13.4506 26.7734 14.8815 28.2784 15.9006C28.4499 16.0165 28.4943 16.1349 28.4399 16.3052C28.3376 16.6554 28.2155 16.996 28.107 17.3463C28.0391 17.5709 27.9367 17.6201 27.6974 17.5215C26.8709 17.1761 26.1566 16.6654 25.5263 16.0461C24.4556 15.0099 23.4872 13.8652 22.2795 12.9696C21.9958 12.7599 21.7134 12.565 21.4197 12.3799C20.1873 11.1809 21.5813 10.1965 21.9032 10.0805C22.2412 9.95963 22.0204 9.54021 20.9299 9.54514C19.8407 9.55008 18.8428 9.91522 17.5721 10.4013C17.3859 10.4753 17.191 10.5295 16.9899 10.5715C15.8365 10.3544 14.6388 10.305 13.3866 10.4457C11.0305 10.7097 9.14805 11.8248 7.76396 13.7294C6.10233 16.0165 5.71128 18.6169 6.18992 21.3307C6.69322 24.1877 8.15008 26.5562 10.3903 28.4066C12.7119 30.3236 15.3863 31.2636 18.4369 31.0834C20.2897 30.9773 22.3535 30.7282 24.6801 28.7569C25.2672 29.0481 25.8827 29.164 26.9054 29.2528C27.6925 29.3268 28.4499 29.2134 29.0371 29.0924C29.956 28.8976 29.892 28.0463 29.5601 27.8885C26.866 26.6327 27.4568 27.1434 26.9189 26.7314C28.2882 25.1081 30.352 23.423 31.1588 17.9656C31.2217 17.5313 31.1674 17.26 31.1588 16.9072C31.1539 16.695 31.202 16.6111 31.4462 16.5865C32.121 16.5099 32.7761 16.3249 33.378 15.9919C35.1236 15.037 35.8267 13.4704 35.9932 11.5904C36.0179 11.3042 35.9882 11.0057 35.6861 10.8552ZM20.4761 27.7725C17.8645 25.7174 16.5988 25.0414 16.0759 25.071C15.5873 25.0981 15.6749 25.6582 15.7822 26.0234C15.8945 26.3835 16.0413 26.6327 16.2473 26.9485C16.3891 27.1582 16.4867 27.4715 16.1054 27.7034C15.2642 28.2265 13.8024 27.5283 13.7333 27.4937C12.0322 26.4921 10.6098 25.1672 9.60694 23.3563C8.6398 21.6121 8.07729 19.7419 7.98478 17.746C7.96011 17.2624 8.10196 17.0921 8.5806 17.0058C9.21095 16.8899 9.86229 16.8653 10.4926 16.9565C13.1572 17.3463 15.4257 18.5404 17.3267 20.4278C18.4123 21.5059 19.2338 22.7914 20.0801 24.0471C20.9793 25.3819 21.9477 26.6524 23.18 27.6935C23.6142 28.0587 23.9621 28.3375 24.2939 28.5423C23.2923 28.6533 21.6195 28.6779 20.4761 27.7725ZM21.7269 19.7124C21.7269 19.4976 21.8983 19.3275 22.1142 19.3275C22.1623 19.3275 22.2068 19.3373 22.2462 19.3521C22.2992 19.3718 22.3486 19.4015 22.3869 19.4458C22.4559 19.5125 22.4954 19.6112 22.4954 19.7124C22.4954 19.927 22.324 20.0972 22.1092 20.0972C21.8934 20.0972 21.7269 19.927 21.7269 19.7124ZM25.6138 21.7107C25.3647 21.8119 25.1155 21.9007 24.8762 21.9105C24.5049 21.9279 24.099 21.7773 23.8782 21.5924C23.5365 21.3061 23.2923 21.1457 23.1886 20.6424C23.1454 20.4278 23.1702 20.0972 23.2083 19.9073C23.2973 19.4976 23.1985 19.2361 22.9111 18.9969C22.6755 18.802 22.3782 18.7502 22.0501 18.7502C21.928 18.7502 21.8157 18.6959 21.7318 18.6514C21.5949 18.5823 21.4826 18.4122 21.5899 18.2025C21.6244 18.1358 21.791 17.9705 21.8304 17.9409C22.2746 17.6868 22.7877 17.7707 23.2626 17.9607C23.703 18.1407 24.0348 18.4713 24.5135 18.9376C25.0032 19.5027 25.0909 19.6606 25.3696 20.0823C25.5892 20.4154 25.7903 20.7559 25.9272 21.1457C26.0098 21.3875 25.9026 21.5873 25.6138 21.7107Z" fill="white"/>
</g>
</svg>
